<mxfile host="Electron" modified="2023-11-17T07:28:01.570Z" agent="Mozilla/5.0 (Windows NT 10.0; Win64; x64) AppleWebKit/537.36 (KHTML, like Gecko) draw.io/22.1.2 Chrome/114.0.5735.289 Electron/25.9.4 Safari/537.36" etag="LN-VN9YP3G9Icj37rp7G" version="22.1.2" type="device">
  <diagram name="Page-1" id="e7e014a7-5840-1c2e-5031-d8a46d1fe8dd">
    <mxGraphModel dx="1181" dy="689" grid="1" gridSize="10" guides="1" tooltips="1" connect="1" arrows="1" fold="1" page="1" pageScale="1" pageWidth="1169" pageHeight="826" background="none" math="0" shadow="0">
      <root>
        <mxCell id="0" />
        <mxCell id="1" parent="0" />
        <mxCell id="2" value="Utilizator" style="swimlane;whiteSpace=wrap;fontSize=6;" parent="1" vertex="1">
          <mxGeometry x="164.5" y="128" width="280" height="570" as="geometry" />
        </mxCell>
        <mxCell id="5" value="" style="ellipse;shape=startState;fillColor=#000000;strokeColor=#ff0000;" parent="2" vertex="1">
          <mxGeometry x="100" y="40" width="30" height="30" as="geometry" />
        </mxCell>
        <mxCell id="6" value="" style="edgeStyle=orthogonalEdgeStyle;elbow=horizontal;verticalAlign=bottom;endArrow=open;endSize=8;strokeColor=#FF0000;endFill=1;rounded=0;entryX=0.456;entryY=-0.001;entryDx=0;entryDy=0;entryPerimeter=0;" parent="2" source="5" target="7" edge="1">
          <mxGeometry x="100" y="40" as="geometry">
            <mxPoint x="55.5" y="82" as="targetPoint" />
          </mxGeometry>
        </mxCell>
        <mxCell id="7" value="Autentificare" style="fontSize=9;" parent="2" vertex="1">
          <mxGeometry x="35.5" y="105" width="64.5" height="35" as="geometry" />
        </mxCell>
        <mxCell id="JofoSt84b8Pug_NEhaIw-52" value="" style="whiteSpace=wrap;strokeColor=#FF0000;fillColor=#FF0000" parent="2" vertex="1">
          <mxGeometry x="145.5" y="100" width="5" height="45" as="geometry" />
        </mxCell>
        <mxCell id="JofoSt84b8Pug_NEhaIw-53" value="" style="edgeStyle=none;strokeColor=#FF0000;endArrow=open;endFill=1;rounded=0;exitX=1;exitY=0.5;exitDx=0;exitDy=0;entryX=0;entryY=0.5;entryDx=0;entryDy=0;" parent="2" source="7" target="JofoSt84b8Pug_NEhaIw-52" edge="1">
          <mxGeometry width="100" height="100" relative="1" as="geometry">
            <mxPoint x="125.5" y="122.08" as="sourcePoint" />
            <mxPoint x="135.5" y="122" as="targetPoint" />
          </mxGeometry>
        </mxCell>
        <mxCell id="JofoSt84b8Pug_NEhaIw-62" value="" style="edgeStyle=elbowEdgeStyle;elbow=horizontal;align=left;verticalAlign=bottom;endArrow=open;endSize=8;strokeColor=#FF0000;exitX=0;exitY=0.25;endFill=1;rounded=0;exitDx=0;exitDy=0;" parent="2" source="JofoSt84b8Pug_NEhaIw-52" edge="1">
          <mxGeometry x="-1" relative="1" as="geometry">
            <mxPoint x="185.5" y="68" as="targetPoint" />
            <Array as="points">
              <mxPoint x="166" y="92" />
            </Array>
            <mxPoint x="180.5" y="145" as="sourcePoint" />
          </mxGeometry>
        </mxCell>
        <mxCell id="JofoSt84b8Pug_NEhaIw-63" value="Cont nou" style="fontSize=9;" parent="2" vertex="1">
          <mxGeometry x="185.5" y="52" width="64.5" height="35" as="geometry" />
        </mxCell>
        <mxCell id="JofoSt84b8Pug_NEhaIw-64" value="" style="edgeStyle=none;strokeColor=#FF0000;endArrow=open;endFill=1;rounded=0;exitX=1;exitY=0.5;exitDx=0;exitDy=0;entryX=0;entryY=0.5;entryDx=0;entryDy=0;" parent="2" target="JofoSt84b8Pug_NEhaIw-65" edge="1">
          <mxGeometry width="100" height="100" relative="1" as="geometry">
            <mxPoint x="150.5" y="122.16" as="sourcePoint" />
            <mxPoint x="185.5" y="122" as="targetPoint" />
          </mxGeometry>
        </mxCell>
        <mxCell id="JofoSt84b8Pug_NEhaIw-65" value="Cont&#xa;existent" style="fontSize=9;" parent="2" vertex="1">
          <mxGeometry x="195.5" y="105" width="64.5" height="35" as="geometry" />
        </mxCell>
        <mxCell id="JofoSt84b8Pug_NEhaIw-67" value="Guest" style="fontSize=9;" parent="2" vertex="1">
          <mxGeometry x="185.5" y="162" width="64.5" height="35" as="geometry" />
        </mxCell>
        <mxCell id="JofoSt84b8Pug_NEhaIw-68" value="" style="edgeStyle=elbowEdgeStyle;elbow=horizontal;align=left;verticalAlign=bottom;endArrow=open;endSize=8;strokeColor=#FF0000;exitX=0.331;exitY=0.87;endFill=1;rounded=0;exitDx=0;exitDy=0;entryX=0;entryY=0.5;entryDx=0;entryDy=0;exitPerimeter=0;" parent="2" source="JofoSt84b8Pug_NEhaIw-52" target="JofoSt84b8Pug_NEhaIw-67" edge="1">
          <mxGeometry x="-1" relative="1" as="geometry">
            <mxPoint x="190" y="132" as="targetPoint" />
            <Array as="points">
              <mxPoint x="166" y="162" />
            </Array>
            <mxPoint x="150.5" y="175" as="sourcePoint" />
          </mxGeometry>
        </mxCell>
        <mxCell id="JofoSt84b8Pug_NEhaIw-70" value="" style="edgeStyle=elbowEdgeStyle;elbow=horizontal;align=left;verticalAlign=bottom;endArrow=open;endSize=8;strokeColor=#FF0000;exitX=0;exitY=0.25;endFill=1;rounded=0;exitDx=0;exitDy=0;entryX=0;entryY=0.25;entryDx=0;entryDy=0;" parent="2" target="JofoSt84b8Pug_NEhaIw-69" edge="1">
          <mxGeometry x="-1" relative="1" as="geometry">
            <mxPoint x="315.5" y="112" as="targetPoint" />
            <Array as="points">
              <mxPoint x="270" y="51" />
            </Array>
            <mxPoint x="250" y="70" as="sourcePoint" />
          </mxGeometry>
        </mxCell>
        <mxCell id="JofoSt84b8Pug_NEhaIw-103" value="Selectare tip&#xa;șablon" style="fontSize=9;" parent="2" vertex="1">
          <mxGeometry x="145.5" y="278" width="64.5" height="35" as="geometry" />
        </mxCell>
        <mxCell id="JofoSt84b8Pug_NEhaIw-109" value="" style="endArrow=open;strokeColor=#FF0000;endFill=1;rounded=0;entryX=0.505;entryY=-0.046;entryDx=0;entryDy=0;entryPerimeter=0;" parent="2" target="JofoSt84b8Pug_NEhaIw-110" edge="1">
          <mxGeometry relative="1" as="geometry">
            <mxPoint x="177.40999999999997" y="313" as="sourcePoint" />
            <mxPoint x="177.5" y="352" as="targetPoint" />
          </mxGeometry>
        </mxCell>
        <mxCell id="JofoSt84b8Pug_NEhaIw-110" value="" style="rhombus;whiteSpace=wrap;html=1;" parent="2" vertex="1">
          <mxGeometry x="155.5" y="342" width="44.5" height="37" as="geometry" />
        </mxCell>
        <mxCell id="JofoSt84b8Pug_NEhaIw-112" value="" style="endArrow=open;strokeColor=#FF0000;endFill=1;rounded=0;exitX=0.5;exitY=1;exitDx=0;exitDy=0;edgeStyle=elbowEdgeStyle;elbow=vertical;entryX=0.312;entryY=-0.016;entryDx=0;entryDy=0;entryPerimeter=0;" parent="2" source="JofoSt84b8Pug_NEhaIw-110" target="JofoSt84b8Pug_NEhaIw-115" edge="1">
          <mxGeometry relative="1" as="geometry">
            <mxPoint x="178.5" y="392" as="sourcePoint" />
            <mxPoint x="55.5" y="392" as="targetPoint" />
          </mxGeometry>
        </mxCell>
        <mxCell id="JofoSt84b8Pug_NEhaIw-113" value="" style="edgeStyle=none;strokeColor=#FF0000;endArrow=open;endFill=1;rounded=0;exitX=0;exitY=0.5;exitDx=0;exitDy=0;entryX=1;entryY=0.5;entryDx=0;entryDy=0;" parent="2" source="JofoSt84b8Pug_NEhaIw-110" target="JofoSt84b8Pug_NEhaIw-114" edge="1">
          <mxGeometry width="100" height="100" relative="1" as="geometry">
            <mxPoint x="25.5" y="352" as="sourcePoint" />
            <mxPoint x="115.5" y="362" as="targetPoint" />
          </mxGeometry>
        </mxCell>
        <mxCell id="JofoSt84b8Pug_NEhaIw-114" value="Completare&#xa;totală" style="fontSize=9;" parent="2" vertex="1">
          <mxGeometry x="35.5" y="342" width="64.5" height="35" as="geometry" />
        </mxCell>
        <mxCell id="JofoSt84b8Pug_NEhaIw-115" value="Completare&#xa;parțială" style="fontSize=9;" parent="2" vertex="1">
          <mxGeometry x="65.5" y="407" width="64.5" height="35" as="geometry" />
        </mxCell>
        <mxCell id="JofoSt84b8Pug_NEhaIw-117" value="&lt;font style=&quot;font-size: 7px;&quot;&gt;date&lt;br&gt;existente&lt;/font&gt;" style="text;html=1;strokeColor=none;fillColor=none;align=left;verticalAlign=middle;whiteSpace=wrap;rounded=0;" parent="2" vertex="1">
          <mxGeometry x="185.5" y="377" width="34.5" height="13" as="geometry" />
        </mxCell>
        <mxCell id="JofoSt84b8Pug_NEhaIw-116" value="date inexistente" style="text;html=1;strokeColor=none;fillColor=none;align=center;verticalAlign=middle;whiteSpace=wrap;rounded=0;fontSize=6;" parent="2" vertex="1">
          <mxGeometry x="100" y="332" width="60" height="30" as="geometry" />
        </mxCell>
        <mxCell id="JofoSt84b8Pug_NEhaIw-154" value="" style="whiteSpace=wrap;strokeColor=#FF0000;fillColor=#FF0000" parent="2" vertex="1">
          <mxGeometry x="200" y="492" width="5" height="40" as="geometry" />
        </mxCell>
        <mxCell id="JofoSt84b8Pug_NEhaIw-156" value="Trimitere e-mail&#xa;manual" style="fontSize=9;" parent="2" vertex="1">
          <mxGeometry x="45.5" y="482" width="64.5" height="35" as="geometry" />
        </mxCell>
        <mxCell id="JofoSt84b8Pug_NEhaIw-157" value="" style="edgeStyle=none;strokeColor=#FF0000;endArrow=open;endFill=1;rounded=0;exitX=0;exitY=0.25;exitDx=0;exitDy=0;entryX=0.997;entryY=0.638;entryDx=0;entryDy=0;entryPerimeter=0;" parent="2" source="JofoSt84b8Pug_NEhaIw-154" target="JofoSt84b8Pug_NEhaIw-156" edge="1">
          <mxGeometry width="100" height="100" relative="1" as="geometry">
            <mxPoint x="345.5" y="455" as="sourcePoint" />
            <mxPoint x="115.5" y="502" as="targetPoint" />
          </mxGeometry>
        </mxCell>
        <mxCell id="JofoSt84b8Pug_NEhaIw-163" value="Feedback" style="fontSize=9;" parent="2" vertex="1">
          <mxGeometry x="35.49999999999999" y="250" width="82.25" height="35" as="geometry" />
        </mxCell>
        <mxCell id="37" value="" style="edgeStyle=orthogonalEdgeStyle;strokeColor=#FF0000;endArrow=open;endFill=1;rounded=0;exitX=0.5;exitY=1;exitDx=0;exitDy=0;" parent="2" source="JofoSt84b8Pug_NEhaIw-163" edge="1">
          <mxGeometry width="100" height="100" relative="1" as="geometry">
            <mxPoint x="78" y="309.5799999999999" as="sourcePoint" />
            <mxPoint x="615.5" y="322" as="targetPoint" />
            <Array as="points">
              <mxPoint x="78" y="285" />
              <mxPoint x="78" y="312" />
              <mxPoint x="109" y="312" />
              <mxPoint x="109" y="322" />
              <mxPoint x="606" y="322" />
            </Array>
          </mxGeometry>
        </mxCell>
        <mxCell id="s3Tn1Wg80CnTLxpHXGY8-42" value="" style="edgeStyle=elbowEdgeStyle;strokeColor=#FF0000;endArrow=open;endFill=1;rounded=0;exitX=0;exitY=0.5;exitDx=0;exitDy=0;entryX=1;entryY=0.5;entryDx=0;entryDy=0;" edge="1" parent="2" target="s3Tn1Wg80CnTLxpHXGY8-43">
          <mxGeometry width="100" height="100" relative="1" as="geometry">
            <mxPoint x="300" y="306" as="sourcePoint" />
            <mxPoint x="195.5" y="262" as="targetPoint" />
          </mxGeometry>
        </mxCell>
        <mxCell id="s3Tn1Wg80CnTLxpHXGY8-43" value="Ghid" style="fontSize=9;" vertex="1" parent="2">
          <mxGeometry x="220" y="342" width="50" height="28" as="geometry" />
        </mxCell>
        <mxCell id="s3Tn1Wg80CnTLxpHXGY8-53" value="" style="endArrow=open;strokeColor=#FF0000;endFill=1;rounded=0;exitX=0;exitY=0.25;exitDx=0;exitDy=0;edgeStyle=orthogonalEdgeStyle;elbow=vertical;" edge="1" parent="2">
          <mxGeometry relative="1" as="geometry">
            <mxPoint x="45.5" y="497.87" as="sourcePoint" />
            <mxPoint x="490.5" y="442" as="targetPoint" />
            <Array as="points">
              <mxPoint x="26" y="498" />
              <mxPoint x="26" y="562" />
              <mxPoint x="436" y="562" />
              <mxPoint x="436" y="352" />
              <mxPoint x="490" y="352" />
            </Array>
          </mxGeometry>
        </mxCell>
        <mxCell id="3" value="Sistem" style="swimlane;whiteSpace=wrap" parent="1" vertex="1">
          <mxGeometry x="445" y="128" width="280" height="570" as="geometry" />
        </mxCell>
        <mxCell id="8" value="Verifică&#xa;autentificare" style="fontSize=10;" parent="3" vertex="1">
          <mxGeometry x="62.5" y="100" width="79.5" height="40" as="geometry" />
        </mxCell>
        <mxCell id="JofoSt84b8Pug_NEhaIw-41" value="" style="rhombus;whiteSpace=wrap;html=1;" parent="3" vertex="1">
          <mxGeometry x="80" y="202" width="44.5" height="35" as="geometry" />
        </mxCell>
        <mxCell id="JofoSt84b8Pug_NEhaIw-44" value="&lt;font style=&quot;font-size: 8px;&quot;&gt;eroare&lt;/font&gt;" style="text;html=1;strokeColor=none;fillColor=none;align=center;verticalAlign=middle;whiteSpace=wrap;rounded=0;" parent="3" vertex="1">
          <mxGeometry x="50.31" y="192" width="24.5" height="18" as="geometry" />
        </mxCell>
        <mxCell id="JofoSt84b8Pug_NEhaIw-45" value="Afișare meniu&#xa;principal" style="fontSize=9;" parent="3" vertex="1">
          <mxGeometry x="59.74999999999999" y="278" width="82.25" height="35" as="geometry" />
        </mxCell>
        <mxCell id="JofoSt84b8Pug_NEhaIw-47" value="" style="endArrow=open;strokeColor=#FF0000;endFill=1;rounded=0;exitX=0.506;exitY=1.038;exitDx=0;exitDy=0;exitPerimeter=0;entryX=0.516;entryY=-0.002;entryDx=0;entryDy=0;entryPerimeter=0;" parent="3" source="JofoSt84b8Pug_NEhaIw-41" target="JofoSt84b8Pug_NEhaIw-45" edge="1">
          <mxGeometry relative="1" as="geometry">
            <mxPoint x="108.03999999999996" y="235.5" as="sourcePoint" />
            <mxPoint x="116.93" y="272" as="targetPoint" />
          </mxGeometry>
        </mxCell>
        <mxCell id="JofoSt84b8Pug_NEhaIw-48" value="&lt;span style=&quot;font-size: 8px;&quot;&gt;succes&lt;/span&gt;" style="text;html=1;strokeColor=none;fillColor=none;align=center;verticalAlign=middle;whiteSpace=wrap;rounded=0;" parent="3" vertex="1">
          <mxGeometry x="129.68" y="237" width="24.5" height="18" as="geometry" />
        </mxCell>
        <mxCell id="11" value="" style="endArrow=open;strokeColor=#FF0000;endFill=1;rounded=0;entryX=0.5;entryY=0;entryDx=0;entryDy=0;" parent="3" source="8" target="JofoSt84b8Pug_NEhaIw-41" edge="1">
          <mxGeometry relative="1" as="geometry">
            <mxPoint x="101.75" y="172" as="targetPoint" />
          </mxGeometry>
        </mxCell>
        <mxCell id="JofoSt84b8Pug_NEhaIw-69" value="" style="whiteSpace=wrap;strokeColor=#FF0000;fillColor=#FF0000" parent="3" vertex="1">
          <mxGeometry x="38" y="100" width="5" height="45" as="geometry" />
        </mxCell>
        <mxCell id="JofoSt84b8Pug_NEhaIw-76" value="" style="edgeStyle=elbowEdgeStyle;elbow=vertical;verticalAlign=bottom;endArrow=open;endSize=8;strokeColor=#FF0000;endFill=1;curved=1;entryX=-0.024;entryY=0.588;entryDx=0;entryDy=0;entryPerimeter=0;exitX=1;exitY=0.5;exitDx=0;exitDy=0;" parent="3" source="JofoSt84b8Pug_NEhaIw-69" target="8" edge="1">
          <mxGeometry x="129.5" y="90" as="geometry">
            <mxPoint x="55" y="122" as="targetPoint" />
            <mxPoint x="55" y="142" as="sourcePoint" />
          </mxGeometry>
        </mxCell>
        <mxCell id="JofoSt84b8Pug_NEhaIw-119" value="" style="whiteSpace=wrap;strokeColor=#FF0000;fillColor=#FF0000" parent="3" vertex="1">
          <mxGeometry x="20" y="422" width="5" height="45" as="geometry" />
        </mxCell>
        <mxCell id="JofoSt84b8Pug_NEhaIw-145" value="Generare&#xa;sesizare" style="fontSize=9;" parent="3" vertex="1">
          <mxGeometry x="43" y="427" width="64.5" height="35" as="geometry" />
        </mxCell>
        <mxCell id="JofoSt84b8Pug_NEhaIw-146" value="" style="edgeStyle=none;strokeColor=#FF0000;endArrow=open;endFill=1;rounded=0;exitX=0;exitY=0.5;exitDx=0;exitDy=0;entryX=0;entryY=0.5;entryDx=0;entryDy=0;" parent="3" source="JofoSt84b8Pug_NEhaIw-119" target="JofoSt84b8Pug_NEhaIw-145" edge="1">
          <mxGeometry width="100" height="100" relative="1" as="geometry">
            <mxPoint x="62.5" y="444.12" as="sourcePoint" />
            <mxPoint x="92.44" y="444.88" as="targetPoint" />
          </mxGeometry>
        </mxCell>
        <mxCell id="JofoSt84b8Pug_NEhaIw-160" value="Redirecționare&#xa;automată" style="fontSize=9;" parent="3" vertex="1">
          <mxGeometry x="70" y="522" width="64.5" height="35" as="geometry" />
        </mxCell>
        <mxCell id="JofoSt84b8Pug_NEhaIw-166" value="" style="whiteSpace=wrap;strokeColor=#FF0000;fillColor=#FF0000" parent="3" vertex="1">
          <mxGeometry x="15" y="273" width="5" height="45" as="geometry" />
        </mxCell>
        <mxCell id="JofoSt84b8Pug_NEhaIw-195" value="" style="edgeStyle=none;strokeColor=#FF0000;endArrow=open;endFill=1;rounded=0;entryX=1;entryY=0.5;entryDx=0;entryDy=0;exitX=0;exitY=0.5;exitDx=0;exitDy=0;" parent="3" source="JofoSt84b8Pug_NEhaIw-45" target="JofoSt84b8Pug_NEhaIw-166" edge="1">
          <mxGeometry width="100" height="100" relative="1" as="geometry">
            <mxPoint x="55" y="296" as="sourcePoint" />
            <mxPoint x="74.80999999999995" y="318" as="targetPoint" />
          </mxGeometry>
        </mxCell>
        <mxCell id="33" value="Închidere&#xa;program" style="fontSize=9;" parent="3" vertex="1">
          <mxGeometry x="185" y="467" width="74.5" height="45" as="geometry" />
        </mxCell>
        <mxCell id="38" value="" style="ellipse;shape=endState;fillColor=#000000;strokeColor=#ff0000" parent="3" vertex="1">
          <mxGeometry x="210.87" y="534" width="22.75" height="23" as="geometry" />
        </mxCell>
        <mxCell id="39" value="" style="endArrow=open;strokeColor=#FF0000;endFill=1;rounded=0" parent="3" source="33" target="38" edge="1">
          <mxGeometry relative="1" as="geometry" />
        </mxCell>
        <mxCell id="s3Tn1Wg80CnTLxpHXGY8-48" value="" style="whiteSpace=wrap;strokeColor=#FF0000;fillColor=#FF0000;rotation=-90;" vertex="1" parent="3">
          <mxGeometry x="219.75" y="402.63" width="5" height="83.75" as="geometry" />
        </mxCell>
        <mxCell id="s3Tn1Wg80CnTLxpHXGY8-51" value="" style="endArrow=open;strokeColor=#FF0000;endFill=1;rounded=0;exitX=0.637;exitY=-0.102;exitDx=0;exitDy=0;edgeStyle=orthogonalEdgeStyle;elbow=vertical;exitPerimeter=0;" edge="1" parent="3">
          <mxGeometry relative="1" as="geometry">
            <mxPoint x="111.08649999999989" y="522.0000000000001" as="sourcePoint" />
            <mxPoint x="222" y="442" as="targetPoint" />
            <Array as="points">
              <mxPoint x="111" y="492" />
              <mxPoint x="135" y="492" />
              <mxPoint x="135" y="366" />
              <mxPoint x="222" y="366" />
            </Array>
          </mxGeometry>
        </mxCell>
        <mxCell id="s3Tn1Wg80CnTLxpHXGY8-47" value="" style="endArrow=open;strokeColor=#FF0000;endFill=1;rounded=0;exitX=0.5;exitY=1;exitDx=0;exitDy=0;edgeStyle=elbowEdgeStyle;elbow=vertical;" edge="1" parent="3">
          <mxGeometry relative="1" as="geometry">
            <mxPoint x="373.48500000000047" y="337" as="sourcePoint" />
            <mxPoint x="245" y="442" as="targetPoint" />
            <Array as="points">
              <mxPoint x="265" y="372" />
            </Array>
          </mxGeometry>
        </mxCell>
        <mxCell id="s3Tn1Wg80CnTLxpHXGY8-69" value="" style="edgeStyle=none;strokeColor=#FF0000;endArrow=open;endFill=1;rounded=0;entryX=0.5;entryY=0;entryDx=0;entryDy=0;exitX=-0.399;exitY=0.537;exitDx=0;exitDy=0;exitPerimeter=0;" edge="1" parent="3" target="33">
          <mxGeometry width="100" height="100" relative="1" as="geometry">
            <mxPoint x="222.16874999999965" y="445.3499999999999" as="sourcePoint" />
            <mxPoint x="222.12449999999973" y="462" as="targetPoint" />
          </mxGeometry>
        </mxCell>
        <mxCell id="s3Tn1Wg80CnTLxpHXGY8-45" value="" style="endArrow=open;strokeColor=#FF0000;endFill=1;rounded=0;exitX=0.5;exitY=1;exitDx=0;exitDy=0;edgeStyle=elbowEdgeStyle;elbow=vertical;" edge="1" parent="3">
          <mxGeometry relative="1" as="geometry">
            <mxPoint x="-40" y="370" as="sourcePoint" />
            <mxPoint x="190.5" y="442" as="targetPoint" />
            <Array as="points">
              <mxPoint x="80.5" y="392" />
            </Array>
          </mxGeometry>
        </mxCell>
        <mxCell id="4" value="Administrator" style="swimlane;whiteSpace=wrap;startSize=23;" parent="1" vertex="1">
          <mxGeometry x="724.5" y="128" width="280" height="570" as="geometry" />
        </mxCell>
        <mxCell id="JofoSt84b8Pug_NEhaIw-164" value="Primire&#xa;mesaj" style="fontSize=9;" parent="4" vertex="1">
          <mxGeometry x="55.5" y="302" width="82.25" height="35" as="geometry" />
        </mxCell>
        <mxCell id="s3Tn1Wg80CnTLxpHXGY8-55" value="Panou control" style="fontSize=10;" vertex="1" parent="4">
          <mxGeometry x="25.5" y="172" width="79.5" height="40" as="geometry" />
        </mxCell>
        <mxCell id="s3Tn1Wg80CnTLxpHXGY8-64" value="Statistici" style="fontSize=10;" vertex="1" parent="4">
          <mxGeometry x="145.5" y="212" width="79.5" height="40" as="geometry" />
        </mxCell>
        <mxCell id="12" value="" style="edgeStyle=elbowEdgeStyle;elbow=horizontal;strokeColor=#FF0000;endArrow=open;endFill=1;rounded=0;exitX=0;exitY=0.5;exitDx=0;exitDy=0;" parent="1" source="JofoSt84b8Pug_NEhaIw-41" target="7" edge="1">
          <mxGeometry width="100" height="100" relative="1" as="geometry">
            <mxPoint x="220" y="370" as="sourcePoint" />
            <mxPoint x="424.5" y="318" as="targetPoint" />
            <Array as="points">
              <mxPoint x="180" y="350" />
            </Array>
          </mxGeometry>
        </mxCell>
        <mxCell id="JofoSt84b8Pug_NEhaIw-71" value="" style="edgeStyle=none;strokeColor=#FF0000;endArrow=open;endFill=1;rounded=0;exitX=1;exitY=0.5;exitDx=0;exitDy=0;entryX=0;entryY=0.5;entryDx=0;entryDy=0;" parent="1" source="JofoSt84b8Pug_NEhaIw-65" target="JofoSt84b8Pug_NEhaIw-69" edge="1">
          <mxGeometry width="100" height="100" relative="1" as="geometry">
            <mxPoint x="430" y="252.07999999999996" as="sourcePoint" />
            <mxPoint x="475.5" y="252.92" as="targetPoint" />
          </mxGeometry>
        </mxCell>
        <mxCell id="JofoSt84b8Pug_NEhaIw-73" value="" style="edgeStyle=elbowEdgeStyle;elbow=horizontal;align=left;verticalAlign=bottom;endArrow=open;endSize=8;strokeColor=#FF0000;exitX=1;exitY=0.571;endFill=1;rounded=0;exitDx=0;exitDy=0;entryX=0;entryY=0.75;entryDx=0;entryDy=0;exitPerimeter=0;" parent="1" source="JofoSt84b8Pug_NEhaIw-67" target="JofoSt84b8Pug_NEhaIw-69" edge="1">
          <mxGeometry x="-1" relative="1" as="geometry">
            <mxPoint x="483.5" y="351" as="targetPoint" />
            <Array as="points">
              <mxPoint x="434.5" y="291" />
            </Array>
            <mxPoint x="414.5" y="310" as="sourcePoint" />
          </mxGeometry>
        </mxCell>
        <mxCell id="JofoSt84b8Pug_NEhaIw-106" value="" style="edgeStyle=none;strokeColor=#FF0000;endArrow=open;endFill=1;rounded=0;entryX=1;entryY=0.5;entryDx=0;entryDy=0;exitX=0;exitY=0.5;exitDx=0;exitDy=0;" parent="1" source="JofoSt84b8Pug_NEhaIw-166" target="JofoSt84b8Pug_NEhaIw-103" edge="1">
          <mxGeometry width="100" height="100" relative="1" as="geometry">
            <mxPoint x="430" y="424" as="sourcePoint" />
            <mxPoint x="525" y="423.71000000000004" as="targetPoint" />
          </mxGeometry>
        </mxCell>
        <mxCell id="JofoSt84b8Pug_NEhaIw-120" value="" style="edgeStyle=elbowEdgeStyle;elbow=horizontal;align=left;verticalAlign=bottom;endArrow=open;endSize=8;strokeColor=#FF0000;endFill=1;rounded=0;exitX=0;exitY=0.5;exitDx=0;exitDy=0;entryX=-0.012;entryY=0.812;entryDx=0;entryDy=0;entryPerimeter=0;" parent="1" source="JofoSt84b8Pug_NEhaIw-114" target="JofoSt84b8Pug_NEhaIw-119" edge="1">
          <mxGeometry x="-1" relative="1" as="geometry">
            <mxPoint x="500" y="650" as="targetPoint" />
            <Array as="points">
              <mxPoint x="180.5" y="570" />
            </Array>
            <mxPoint x="190" y="490" as="sourcePoint" />
          </mxGeometry>
        </mxCell>
        <mxCell id="JofoSt84b8Pug_NEhaIw-144" value="" style="edgeStyle=elbowEdgeStyle;elbow=horizontal;align=left;verticalAlign=bottom;endArrow=open;endSize=8;strokeColor=#FF0000;exitX=1;exitY=0.25;endFill=1;rounded=0;exitDx=0;exitDy=0;entryX=0;entryY=0.25;entryDx=0;entryDy=0;" parent="1" source="JofoSt84b8Pug_NEhaIw-115" target="JofoSt84b8Pug_NEhaIw-119" edge="1">
          <mxGeometry x="-1" relative="1" as="geometry">
            <mxPoint x="495.30999999999995" y="563.75" as="targetPoint" />
            <Array as="points">
              <mxPoint x="384.75" y="545.5" />
            </Array>
            <mxPoint x="359.75" y="500" as="sourcePoint" />
          </mxGeometry>
        </mxCell>
        <mxCell id="JofoSt84b8Pug_NEhaIw-159" value="" style="edgeStyle=elbowEdgeStyle;elbow=horizontal;align=left;verticalAlign=bottom;endArrow=open;endSize=8;strokeColor=#FF0000;endFill=1;rounded=0;exitX=0;exitY=0.75;exitDx=0;exitDy=0;entryX=-0.01;entryY=0.638;entryDx=0;entryDy=0;entryPerimeter=0;" parent="1" source="JofoSt84b8Pug_NEhaIw-154" target="JofoSt84b8Pug_NEhaIw-160" edge="1">
          <mxGeometry x="-1" relative="1" as="geometry">
            <mxPoint x="490" y="680" as="targetPoint" />
            <Array as="points">
              <mxPoint x="340" y="680" />
            </Array>
            <mxPoint x="360" y="650" as="sourcePoint" />
          </mxGeometry>
        </mxCell>
        <mxCell id="JofoSt84b8Pug_NEhaIw-167" value="" style="edgeStyle=orthogonalEdgeStyle;elbow=horizontal;align=left;verticalAlign=bottom;endArrow=open;endSize=8;strokeColor=#FF0000;exitX=0;exitY=0.25;endFill=1;rounded=0;exitDx=0;exitDy=0;entryX=-0.045;entryY=0.562;entryDx=0;entryDy=0;entryPerimeter=0;" parent="1" source="JofoSt84b8Pug_NEhaIw-166" target="JofoSt84b8Pug_NEhaIw-163" edge="1">
          <mxGeometry x="-1" relative="1" as="geometry">
            <mxPoint x="180" y="400" as="targetPoint" />
            <Array as="points">
              <mxPoint x="450" y="412" />
              <mxPoint x="450" y="400" />
              <mxPoint x="430" y="400" />
              <mxPoint x="430" y="360" />
              <mxPoint x="171" y="360" />
              <mxPoint x="171" y="398" />
            </Array>
            <mxPoint x="372.5" y="393" as="sourcePoint" />
          </mxGeometry>
        </mxCell>
        <mxCell id="JofoSt84b8Pug_NEhaIw-151" value="" style="edgeStyle=orthogonalEdgeStyle;elbow=horizontal;align=left;verticalAlign=bottom;endArrow=open;endSize=8;strokeColor=#FF0000;endFill=1;rounded=0;exitX=0.25;exitY=1;exitDx=0;exitDy=0;entryX=1;entryY=0.5;entryDx=0;entryDy=0;" parent="1" source="JofoSt84b8Pug_NEhaIw-145" target="JofoSt84b8Pug_NEhaIw-154" edge="1">
          <mxGeometry x="-1" relative="1" as="geometry">
            <mxPoint x="390" y="630" as="targetPoint" />
            <Array as="points">
              <mxPoint x="504" y="640" />
            </Array>
            <mxPoint x="504.74999999999955" y="595" as="sourcePoint" />
          </mxGeometry>
        </mxCell>
        <mxCell id="s3Tn1Wg80CnTLxpHXGY8-60" value="" style="endArrow=open;strokeColor=#FF0000;endFill=1;rounded=0;exitX=0.5;exitY=1;exitDx=0;exitDy=0;edgeStyle=orthogonalEdgeStyle;" edge="1" parent="1" source="s3Tn1Wg80CnTLxpHXGY8-55">
          <mxGeometry relative="1" as="geometry">
            <mxPoint x="792" y="350" as="sourcePoint" />
            <mxPoint x="678" y="570" as="targetPoint" />
            <Array as="points">
              <mxPoint x="790" y="360" />
              <mxPoint x="760" y="360" />
              <mxPoint x="760" y="480" />
              <mxPoint x="678" y="480" />
            </Array>
          </mxGeometry>
        </mxCell>
        <mxCell id="s3Tn1Wg80CnTLxpHXGY8-65" value="" style="endArrow=open;strokeColor=#FF0000;endFill=1;rounded=0;exitX=0.5;exitY=1;exitDx=0;exitDy=0;edgeStyle=elbowEdgeStyle;elbow=vertical;entryX=0.993;entryY=0.904;entryDx=0;entryDy=0;entryPerimeter=0;" edge="1" parent="1" source="s3Tn1Wg80CnTLxpHXGY8-64" target="s3Tn1Wg80CnTLxpHXGY8-48">
          <mxGeometry relative="1" as="geometry">
            <mxPoint x="928.5" y="410" as="sourcePoint" />
            <mxPoint x="790" y="560" as="targetPoint" />
            <Array as="points">
              <mxPoint x="860.5" y="540" />
            </Array>
          </mxGeometry>
        </mxCell>
      </root>
    </mxGraphModel>
  </diagram>
</mxfile>
